{"accessors":[{"bufferView":0,"byteOffset":0,"componentType":5126,"count":36,"max":[100.0,0.5,100.0],"min":[-100.0,-0.5,-100.0],"normalized":false,"type":"VEC3"},{"bufferView":1,"byteOffset":0,"componentType":5126,"count":36,"max":[0.0,0.0,0.0000763009302318096,-1.0],"min":[-1.0,-1.0,-1.0,-1.0],"normalized":false,"type":"VEC4"},{"bufferView":2,"byteOffset":0,"componentType":5126,"count":36,"max":[1.0,1.0,1.0],"min":[-1.0,-1.0,-1.0],"normalized":false,"type":"VEC3"},{"bufferView":3,"byteOffset":0,"componentType":5126,"count":36,"max":[1.0,1.0],"min":[0.0,0.0],"normalized":false,"type":"VEC2"},{"bufferView":4,"byteOffset":0,"componentType":5123,"count":36,"max":[35.0],"min":[0.0],"normalized":false,"type":"SCALAR"},{"bufferView":5,"byteOffset":0,"componentType":5126,"count":36,"max":[100.0,0.5,100.0],"min":[-100.0,-0.5,-100.0],"normalized":false,"type":"VEC3"},{"bufferView":6,"byteOffset":0,"componentType":5126,"count":36,"max":[0.0,0.0,0.0000763009302318096,-1.0],"min":[-1.0,-1.0,-1.0,-1.0],"normalized":false,"type":"VEC4"},{"bufferView":7,"byteOffset":0,"componentType":5126,"count":36,"max":[1.0,1.0,1.0],"min":[-1.0,-1.0,-1.0],"normalized":false,"type":"VEC3"},{"bufferView":8,"byteOffset":0,"componentType":5126,"count":36,"max":[1.0,1.0],"min":[0.0,0.0],"normalized":false,"type":"VEC2"},{"bufferView":9,"byteOffset":0,"componentType":5123,"count":36,"max":[35.0],"min":[0.0],"normalized":false,"type":"SCALAR"},{"bufferView":10,"byteOffset":0,"componentType":5126,"count":2654,"max":[2.80831694602966,1.38632035255432,1.39917945861816],"min":[-2.80831694602966,-1.79358983039856,-1.84578967094421],"normalized":false,"type":"VEC3"},{"bufferView":11,"byteOffset":0,"componentType":5126,"count":2654,"max":[1.0,0.997872412204742,0.999990224838257,1.0],"min":[-0.999993801116943,-0.996946930885315,-0.999799728393555,-1.0],"normalized":false,"type":"VEC4"},{"bufferView":12,"byteOffset":0,"componentType":5126,"count":2654,"max":[0.999991476535797,1.0,1.0],"min":[-1.0,-0.99999463558197,-0.989889562129974],"normalized":false,"type":"VEC3"},{"bufferView":13,"byteOffset":0,"componentType":5126,"count":2654,"max":[0.75,1.0],"min":[0.0,0.124999940395355],"normalized":false,"type":"VEC2"},{"bufferView":14,"byteOffset":0,"componentType":5123,"count":4134,"max":[2653.0],"min":[0.0],"normalized":false,"type":"SCALAR"},{"bufferView":15,"byteOffset":0,"componentType":5126,"count":3680,"max":[1.0,0.933670818805695,1.0],"min":[-1.0,-0.0500409156084061,-1.0],"normalized":false,"type":"VEC3"},{"bufferView":16,"byteOffset":0,"componentType":5126,"count":3680,"max":[1.0,0.000168532133102417,0.997865080833435,1.0],"min":[-0.997861921787262,-0.000199884176254272,-0.997869074344635,-1.0],"normalized":false,"type":"VEC4"},{"bufferView":17,"byteOffset":0,"componentType":5126,"count":3680,"max":[0.995186924934387,1.0,0.995189309120178],"min":[-0.995186924934387,-1.0,-0.995184600353241],"normalized":false,"type":"VEC3"},{"bufferView":18,"byteOffset":0,"componentType":5126,"count":3680,"max":[1.0,1.0],"min":[0.0,0.0],"normalized":false,"type":"VEC2"},{"bufferView":19,"byteOffset":0,"componentType":5123,"count":5640,"max":[3679.0],"min":[0.0],"normalized":false,"type":"SCALAR"}],"asset":{"generator":"Godot Engine v4.4.1.stable.official@49a5bc7b616bd04689a2c89e89bda41f50241464","version":"2.0"},"bufferViews":[{"buffer":0,"byteLength":432,"byteOffset":0,"byteStride":12,"target":34962},{"buffer":0,"byteLength":576,"byteOffset":432,"byteStride":16,"target":34962},{"buffer":0,"byteLength":432,"byteOffset":1008,"byteStride":12,"target":34962},{"buffer":0,"byteLength":288,"byteOffset":1440,"byteStride":8,"target":34962},{"buffer":0,"byteLength":72,"byteOffset":1728,"target":34963},{"buffer":0,"byteLength":432,"byteOffset":1800,"byteStride":12,"target":34962},{"buffer":0,"byteLength":576,"byteOffset":2232,"byteStride":16,"target":34962},{"buffer":0,"byteLength":432,"byteOffset":2808,"byteStride":12,"target":34962},{"buffer":0,"byteLength":288,"byteOffset":3240,"byteStride":8,"target":34962},{"buffer":0,"byteLength":72,"byteOffset":3528,"target":34963},{"buffer":0,"byteLength":31848,"byteOffset":3600,"byteStride":12,"target":34962},{"buffer":0,"byteLength":42464,"byteOffset":35448,"byteStride":16,"target":34962},{"buffer":0,"byteLength":31848,"byteOffset":77912,"byteStride":12,"target":34962},{"buffer":0,"byteLength":21232,"byteOffset":109760,"byteStride":8,"target":34962},{"buffer":0,"byteLength":8268,"byteOffset":130992,"target":34963},{"buffer":0,"byteLength":44160,"byteOffset":139260,"byteStride":12,"target":34962},{"buffer":0,"byteLength":58880,"byteOffset":183420,"byteStride":16,"target":34962},{"buffer":0,"byteLength":44160,"byteOffset":242300,"byteStride":12,"target":34962},{"buffer":0,"byteLength":29440,"byteOffset":286460,"byteStride":8,"target":34962},{"buffer":0,"byteLength":11280,"byteOffset":315900,"target":34963}],"buffers":[{"byteLength":327180,"uri":"DOAA0.bin"}],"cameras":[{"perspective":{"yfov":1.91986215114594,"zfar":4000.0,"znear":0.0500000007450581},"type":"perspective"}],"extensions":{"OMI_physics_shape":{"shapes":[{"capsule":{"height":2.52229881286621,"radius":0.5},"type":"capsule"}]}},"extensionsUsed":["GODOT_single_root","OMI_physics_body","OMI_physics_shape"],"materials":[{"extensions":{},"pbrMetallicRoughness":{"baseColorFactor":[0.00289350422099233,0.077795498073101,0.00368687766604126,1.0],"metallicFactor":0.0,"roughnessFactor":1.0}},{"extensions":{},"pbrMetallicRoughness":{"baseColorFactor":[1.0,1.0,1.0,1.0],"metallicFactor":0.0,"roughnessFactor":1.0}},{"extensions":{},"pbrMetallicRoughness":{"baseColorFactor":[1.0,1.0,1.0,1.0],"metallicFactor":0.0,"roughnessFactor":1.0}}],"meshes":[{"extras":{"targetNames":[]},"primitives":[{"attributes":{"NORMAL":2,"POSITION":0,"TANGENT":1,"TEXCOORD_0":3},"indices":4,"material":0,"mode":4}]},{"extras":{"targetNames":[]},"primitives":[{"attributes":{"NORMAL":7,"POSITION":5,"TANGENT":6,"TEXCOORD_0":8},"indices":9,"material":0,"mode":4}]},{"extras":{"targetNames":[]},"primitives":[{"attributes":{"NORMAL":12,"POSITION":10,"TANGENT":11,"TEXCOORD_0":13},"indices":14,"material":1,"mode":4}]},{"extras":{"targetNames":[]},"primitives":[{"attributes":{"NORMAL":17,"POSITION":15,"TANGENT":16,"TEXCOORD_0":18},"indices":19,"material":2,"mode":4}]}],"nodes":[{"children":[1,2,5],"name":"Main","translation":[-0.114731788635254,1.03808164596558,7.82748889923096]},{"name":"WorldEnvironment"},{"children":[3,4],"name":"world"},{"mesh":0,"name":"CSGBox3D2","scale":[0.5,0.5,0.5],"translation":[-0.0230493545532227,0.489649295806885,-0.011594295501709]},{"mesh":1,"name":"CSGBox3D23","scale":[0.00999999977648258,5.0,0.00999999977648258],"translation":[3.25686550140381,3.90608263015747,-30.9703235626221]},{"children":[6,7,8,11],"extensions":{"OMI_physics_body":{"motion":{"type":"kinematic"}}},"name":"player","translation":[-0.324204444885254,0.140969038009644,-7.95290517807007]},{"extensions":{"OMI_physics_body":{"collider":{"shape":0}}},"name":"standingcolision","scale":[1.0,1.08698034286499,1.0],"translation":[0.0,0.976495981216431,0.0]},{"extensions":{"OMI_physics_body":{"collider":{"shape":0}}},"name":"crouchingcolision","scale":[1.0,0.600000023841858,1.0],"translation":[0.0,0.37706983089447,0.0]},{"children":[9,10],"name":"tophat","rotation":[0.0,1.0,0.0,-0.0000000437113882867379],"translation":[0.0,-1.44700002670288,0.0]},{"mesh":2,"name":"character","scale":[0.5,0.800000011920929,0.209999993443489],"translation":[0.0,2.53340530395508,0.0]},{"mesh":3,"name":"hat","rotation":[-0.244266554713249,0.0,0.0,0.969708144664764],"scale":[0.180000007152557,0.164421409368515,0.180000007152557],"translation":[0.0,3.57553195953369,-0.00372231751680374]},{"children":[12],"name":"head"},{"camera":0,"children":[13],"name":"Camera","translation":[0.000587940216064453,2.11605978012085,-0.10557234287262]},{"name":"RayCast3D","translation":[-0.00182294845581055,-0.907498836517334,0.0119547843933105]}],"scene":0,"scenes":[{"nodes":[0]}]}